
<svg width="12px" height="20px" viewBox="27 17 12 20" version="1.1" xmlns="http://www.w3.org/2000/svg" xmlns:xlink="http://www.w3.org/1999/xlink">
    <!-- Generator: Sketch 41.2 (35397) - http://www.bohemiancoding.com/sketch -->
    <desc>Created with Sketch.</desc>
    <defs></defs>
    <path d="M35.627451,18.0980392 C35.627451,17.4705882 35.1568627,17 34.5294118,17 L31.4705882,17 C30.8431373,17 30.372549,17.4705882 30.372549,18.0980392 L30.372549,19.0392157 C30.372549,19.6666667 29.9019608,20.1372549 29.2745098,20.1372549 L28.0980392,20.1372549 C27.4705882,20.1372549 27,20.6078431 27,21.2352941 L27,34.9607843 C27,35.5882353 27.4705882,36.0588235 28.0980392,36.0588235 L37.9019608,36.0588235 C38.5294118,36.0588235 39,35.5882353 39,34.9607843 L39,21.2352941 C39,20.6078431 38.5294118,20.1372549 37.9019608,20.1372549 L36.7254902,20.1372549 C36.1764706,20.1372549 35.627451,19.6666667 35.627451,19.0392157 L35.627451,18.0980392 Z" id="Shape" stroke="none" fill="#929292" fill-rule="evenodd"></path>
</svg>