
<svg width="138px" height="285px" viewBox="91 93 138 285" version="1.1" xmlns="http://www.w3.org/2000/svg" xmlns:xlink="http://www.w3.org/1999/xlink">
    <!-- Generator: Sketch 41.2 (35397) - http://www.bohemiancoding.com/sketch -->
    <desc>Created with Sketch.</desc>
    <defs></defs>
    <g id="Group-2" stroke="none" stroke-width="1" fill="none" fill-rule="evenodd" transform="translate(92.000000, 94.000000)">
        <g id="Back">
            <path d="M131.610172,111.869269 C131.610172,113.26354 130.480742,114.393737 129.087417,114.393737 C127.694993,114.393737 126.565563,113.26354 126.565563,111.869269 C126.565563,110.474998 127.694993,109.344801 129.087417,109.344801 C130.480742,109.344801 131.610172,110.474998 131.610172,111.869269" id="Fill-2385"></path>
            <path d="M131.610172,159.729706 C131.610172,161.123977 130.480742,162.254175 129.087417,162.254175 C127.694993,162.254175 126.565563,161.123977 126.565563,159.729706 C126.565563,158.335436 127.694993,157.205238 129.087417,157.205238 C130.480742,157.205238 131.610172,158.335436 131.610172,159.729706" id="Fill-2387"></path>
            <path d="M73.4429736,282.515565 C73.4429736,282.515565 97.5888279,282.117202 110.944748,281.063613 C124.300669,280.010024 128.583318,274.368049 128.583318,274.368049 C135.56345,266.220533 135.338285,240.570279 135.338285,240.570279 L135.338285,220.967572 L135.338285,99.2955971 C135.338285,99.2955971 135.113119,49.049578 135.338285,36.6570621 C135.56345,24.2645462 134.045835,15.3518487 134.045835,15.3518487 C134.045835,15.3518487 133.742311,6.10658121 124.034974,2.90615764 C124.034974,2.90615764 115.358894,0.358256369 104.014152,0.152765924 C92.7919008,-0.0509219745 42.5691723,-0.0509219745 31.3469207,0.152765924 C20.0021789,0.358256369 11.3260995,2.90615764 11.3260995,2.90615764 C1.61876172,6.10658121 1.31523854,15.3518487 1.31523854,15.3518487 C1.31523854,15.3518487 -0.202377352,24.2645462 0.0227882107,36.6570621 C0.247953774,49.049578 0.0227882107,99.2955971 0.0227882107,99.2955971 L0.0227882107,220.967572 L0.0227882107,240.570279 C0.0227882107,240.570279 -0.202377352,266.220533 6.7777551,274.368049 C6.7777551,274.368049 11.0613048,280.010024 24.4163246,281.063613 C37.7722452,282.117202 61.9180995,282.515565 61.9180995,282.515565 L73.4429736,282.515565 Z" id="Stroke-42077" stroke="#FFFFFF" stroke-width="1.8"></path>
            <path d="M61.3595974,157.822431 C59.4321801,157.822431 57.8542199,156.2443 57.8542199,154.315574 L57.8542199,116.693698 C57.8542199,114.764071 59.4321801,113.18594 61.3595974,113.18594 L72.5530278,113.18594 C74.480445,113.18594 76.0575046,114.764071 76.0575046,116.693698 L76.0575046,154.315574 C76.0575046,156.2443 74.480445,157.822431 72.5530278,157.822431 L61.3595974,157.822431 Z" id="Fill-42083"></path>
        </g>
        <g id="Temp/Hum" transform="translate(69.350993, 46.866242)" fill="#FFFFFF" opacity="0.5">
            <rect id="Rectangle-121-Copy" x="0" y="8.52651283e-14" width="49.5364238" height="149.824336" rx="2.7"></rect>
        </g>
        <g id="SD-card" transform="translate(17.112583, 98.238854)" fill="#FFFFFF" opacity="0.5">
            <rect id="Rectangle-121-Copy-4" x="0" y="0" width="49.5364238" height="48.6687898" rx="2.7"></rect>
        </g>
        <g id="Laser" transform="translate(17.112583, 46.866242)" fill="#FFFFFF" opacity="0.5">
            <rect id="Rectangle-121" x="0" y="0" width="49.5364238" height="48.6687898" rx="2.7"></rect>
        </g>
        <rect id="Rectangle" fill="#000000" opacity="0.1" x="9.00662252" y="218.10828" width="117.986755" height="17.1242038"></rect>
        <g id="Off" transform="translate(99.072848, 220.812102)" fill="#FFFFFF" opacity="0.39770154">
            <rect id="Rectangle-1234" x="0" y="0.274606887" width="19.8145695" height="11.350418" rx="5.675209"></rect>
            <ellipse id="Oval-524" cx="5.4392936" cy="5.85828025" rx="5.4392936" ry="5.12599522"></ellipse>
        </g>
    </g>
</svg>
