
<svg width="175px" height="286px" viewBox="53 92 175 286" version="1.1" xmlns="http://www.w3.org/2000/svg" xmlns:xlink="http://www.w3.org/1999/xlink">
    <!-- Generator: Sketch 41.2 (35397) - http://www.bohemiancoding.com/sketch -->
    <desc>Created with Sketch.</desc>
    <defs>
        <polygon id="path-1" points="1.33838411 216.774044 134.424742 216.774044 134.424742 215.872457 1.33838411 215.872457"></polygon>
        <mask id="mask-2" maskContentUnits="userSpaceOnUse" maskUnits="objectBoundingBox" x="0" y="0" width="133.086358" height="0.901587302" fill="white">
            <use xlink:href="#path-1"></use>
        </mask>
        <polygon id="path-3" points="0.149509934 215.873359 11.9175629 215.873359 11.9175629 72.9077587 0.149509934 72.9077587"></polygon>
        <mask id="mask-4" maskContentUnits="userSpaceOnUse" maskUnits="objectBoundingBox" x="0" y="0" width="11.768053" height="142.9656" fill="white">
            <use xlink:href="#path-3"></use>
        </mask>
        <polygon id="path-5" points="123.731179 215.873359 135.499232 215.873359 135.499232 72.9077587 123.731179 72.9077587"></polygon>
        <mask id="mask-6" maskContentUnits="userSpaceOnUse" maskUnits="objectBoundingBox" x="0" y="0" width="11.768053" height="142.9656" fill="white">
            <use xlink:href="#path-5"></use>
        </mask>
        <rect id="path-7" x="0" y="0" width="57" height="143"></rect>
        <mask id="mask-8" maskContentUnits="userSpaceOnUse" maskUnits="objectBoundingBox" x="0" y="0" width="57" height="143" fill="white">
            <use xlink:href="#path-7"></use>
        </mask>
        <rect id="path-9" x="0" y="3" width="54" height="138"></rect>
        <mask id="mask-10" maskContentUnits="userSpaceOnUse" maskUnits="objectBoundingBox" x="0" y="0" width="54" height="138" fill="white">
            <use xlink:href="#path-9"></use>
        </mask>
        <rect id="path-11" x="0" y="6" width="50" height="130"></rect>
        <mask id="mask-12" maskContentUnits="userSpaceOnUse" maskUnits="objectBoundingBox" x="0" y="0" width="50" height="130" fill="white">
            <use xlink:href="#path-11"></use>
        </mask>
    </defs>
    <g id="Back" stroke="none" stroke-width="1" fill="none" fill-rule="evenodd" transform="translate(91.000000, 93.000000)">
        <path d="M56.2967046,89.114061 L49.5750623,89.6126387 C49.5750623,89.6126387 48.8293139,89.4593689 48.943698,92.6807403 C49.0589828,95.9030133 48.943698,104.303102 48.943698,104.303102 C48.943698,104.303102 48.615857,106.453388 49.765102,106.797794 C50.9152477,107.143102 56.2967046,107.294569 56.2967046,107.294569" id="Stroke-2052" stroke="#FFFFFF" stroke-width="0.5"></path>
        <path d="M50.2084079,91.0704152 L56.2968848,91.0704152" id="Stroke-2054" stroke="#FFFFFF" stroke-width="0.5"></path>
        <path d="M50.2084079,104.418145 L56.2968848,104.418145" id="Stroke-2056" stroke="#FFFFFF" stroke-width="0.5"></path>
        <path d="M49.5724503,105.684244 L49.5724503,105.684244 C49.2229934,105.684244 48.9365828,105.397539 48.9365828,105.047723 L48.9365828,90.9018184 C48.9365828,90.551101 49.2229934,90.2652978 49.5724503,90.2652978 C49.9219073,90.2652978 50.2083179,90.551101 50.2083179,90.9018184 L50.2083179,105.047723 C50.2083179,105.397539 49.9219073,105.684244 49.5724503,105.684244 Z" id="Stroke-2058" stroke="#FFFFFF" stroke-width="0.5"></path>
        <path d="M56.2967046,137.198867 L49.5750623,137.697445 C49.5750623,137.697445 48.8293139,137.544175 48.943698,140.766448 C49.0589828,143.98782 48.943698,152.387909 48.943698,152.387909 C48.943698,152.387909 48.615857,154.538194 49.765102,154.882601 C50.9152477,155.227909 56.2967046,155.379375 56.2967046,155.379375" id="Stroke-2062" stroke="#FFFFFF" stroke-width="0.5"></path>
        <path d="M50.2084079,139.155222 L56.2968848,139.155222" id="Stroke-2064" stroke="#FFFFFF" stroke-width="0.5"></path>
        <path d="M50.2084079,152.502951 L56.2968848,152.502951" id="Stroke-2066" stroke="#FFFFFF" stroke-width="0.5"></path>
        <path d="M49.5724503,153.76905 L49.5724503,153.76905 C49.2229934,153.76905 48.9365828,153.482345 48.9365828,153.13253 L48.9365828,138.986625 C48.9365828,138.635907 49.2229934,138.350104 49.5724503,138.350104 C49.9219073,138.350104 50.2083179,138.635907 50.2083179,138.986625 L50.2083179,153.13253 C50.2083179,153.482345 49.9219073,153.76905 49.5724503,153.76905 Z" id="Stroke-2068" stroke="#FFFFFF" stroke-width="0.5"></path>
        <path d="M56.2967046,184.682766 L49.5750623,185.181343 C49.5750623,185.181343 48.8293139,185.028074 48.943698,188.250347 C49.0589828,191.470817 48.943698,199.871807 48.943698,199.871807 C48.943698,199.871807 48.615857,202.021191 49.765102,202.365597 C50.9152477,202.711807 56.2967046,202.863274 56.2967046,202.863274" id="Stroke-2072" stroke="#FFFFFF" stroke-width="0.5"></path>
        <path d="M50.2084079,186.638218 L56.2968848,186.638218" id="Stroke-2074" stroke="#FFFFFF" stroke-width="0.5"></path>
        <path d="M50.2084079,199.98685 L56.2968848,199.98685" id="Stroke-2076" stroke="#FFFFFF" stroke-width="0.5"></path>
        <path d="M49.5724503,201.252047 L49.5724503,201.252047 C49.2229934,201.252047 48.9365828,200.966244 48.9365828,200.615526 L48.9365828,186.469622 C48.9365828,186.119806 49.2229934,185.833101 49.5724503,185.833101 C49.9219073,185.833101 50.2083179,186.119806 50.2083179,186.469622 L50.2083179,200.615526 C50.2083179,200.966244 49.9219073,201.252047 49.5724503,201.252047 Z" id="Stroke-2078" stroke="#FFFFFF" stroke-width="0.5"></path>
        <path d="M77.7216583,89.114061 L84.4433007,89.6126387 C84.4433007,89.6126387 85.189049,89.4593689 85.0746649,92.6807403 C84.9593801,95.9030133 85.0746649,104.303102 85.0746649,104.303102 C85.0746649,104.303102 85.402506,106.453388 84.2532609,106.797794 C83.1031152,107.143102 77.7216583,107.294569 77.7216583,107.294569" id="Stroke-2082" stroke="#FFFFFF" stroke-width="0.5"></path>
        <path d="M83.809955,91.0704152 L77.7214781,91.0704152" id="Stroke-2084" stroke="#FFFFFF" stroke-width="0.5"></path>
        <path d="M83.809955,104.418145 L77.7214781,104.418145" id="Stroke-2086" stroke="#FFFFFF" stroke-width="0.5"></path>
        <path d="M84.4463629,105.684244 L84.4463629,105.684244 C84.7958199,105.684244 85.0822305,105.397539 85.0822305,105.047723 L85.0822305,90.9018184 C85.0822305,90.551101 84.7958199,90.2652978 84.4463629,90.2652978 C84.096906,90.2652978 83.8104954,90.551101 83.8104954,90.9018184 L83.8104954,105.047723 C83.8104954,105.397539 84.096906,105.684244 84.4463629,105.684244 Z" id="Stroke-2088" stroke="#FFFFFF" stroke-width="0.5"></path>
        <path d="M77.7216583,137.198867 L84.4433007,137.697445 C84.4433007,137.697445 85.189049,137.544175 85.0746649,140.766448 C84.9593801,143.98782 85.0746649,152.387909 85.0746649,152.387909 C85.0746649,152.387909 85.402506,154.538194 84.2532609,154.882601 C83.1031152,155.227909 77.7216583,155.379375 77.7216583,155.379375" id="Stroke-2092" stroke="#FFFFFF" stroke-width="0.5"></path>
        <path d="M83.809955,139.155222 L77.7214781,139.155222" id="Stroke-2094" stroke="#FFFFFF" stroke-width="0.5"></path>
        <path d="M83.809955,152.502951 L77.7214781,152.502951" id="Stroke-2096" stroke="#FFFFFF" stroke-width="0.5"></path>
        <path d="M84.4463629,153.76905 L84.4463629,153.76905 C84.7958199,153.76905 85.0822305,153.482345 85.0822305,153.13253 L85.0822305,138.986625 C85.0822305,138.635907 84.7958199,138.350104 84.4463629,138.350104 C84.096906,138.350104 83.8104954,138.635907 83.8104954,138.986625 L83.8104954,153.13253 C83.8104954,153.482345 84.096906,153.76905 84.4463629,153.76905 Z" id="Stroke-2098" stroke="#FFFFFF" stroke-width="0.5"></path>
        <path d="M77.7216583,184.682766 L84.4433007,185.181343 C84.4433007,185.181343 85.189049,185.028074 85.0746649,188.250347 C84.9593801,191.470817 85.0746649,199.871807 85.0746649,199.871807 C85.0746649,199.871807 85.402506,202.021191 84.2532609,202.365597 C83.1031152,202.711807 77.7216583,202.863274 77.7216583,202.863274" id="Stroke-2102" stroke="#FFFFFF" stroke-width="0.5"></path>
        <path d="M83.809955,186.638218 L77.7214781,186.638218" id="Stroke-2104" stroke="#FFFFFF" stroke-width="0.5"></path>
        <path d="M83.809955,199.98685 L77.7214781,199.98685" id="Stroke-2106" stroke="#FFFFFF" stroke-width="0.5"></path>
        <path d="M84.4463629,201.252047 L84.4463629,201.252047 C84.7958199,201.252047 85.0822305,200.966244 85.0822305,200.615526 L85.0822305,186.469622 C85.0822305,186.119806 84.7958199,185.833101 84.4463629,185.833101 C84.096906,185.833101 83.8104954,186.119806 83.8104954,186.469622 L83.8104954,200.615526 C83.8104954,200.966244 84.096906,201.252047 84.4463629,201.252047 Z" id="Stroke-2108" stroke="#FFFFFF" stroke-width="0.5"></path>
        <polygon id="Stroke-2366" stroke="#FFFFFF" stroke-width="0.9" points="56.312106 215.873359 77.6001589 215.873359 77.6001589 72.9077587 56.312106 72.9077587"></polygon>
        <path d="M7.67499338,72.8903581 C7.67499338,73.7171137 7.00490066,74.3878946 6.17899338,74.3878946 C5.35218543,74.3878946 4.68299338,73.7171137 4.68299338,72.8903581" id="Stroke-2371" stroke="#676767" stroke-width="0.5"></path>
        <path d="M4.37757881,215.784913 C4.37757881,214.958157 5.04767152,214.288278 5.87357881,214.288278 C6.70038675,214.288278 7.36957881,214.958157 7.36957881,215.784913" id="Stroke-2380" stroke="#676767" stroke-width="0.5"></path>
        <path d="M130.583687,72.8903581 C130.583687,73.7171137 129.913595,74.3878946 129.087687,74.3878946 C128.260879,74.3878946 127.591687,73.7171137 127.591687,72.8903581" id="Stroke-2384" stroke="#676767" stroke-width="0.5"></path>
        <path d="M131.610172,120.924044 C131.610172,122.3188 130.480742,123.44939 129.087417,123.44939 C127.694993,123.44939 126.565563,122.3188 126.565563,120.924044 C126.565563,119.529289 127.694993,118.398698 129.087417,118.398698 C130.480742,118.398698 131.610172,119.529289 131.610172,120.924044" id="Fill-2385"></path>
        <path d="M131.610172,120.924044 C131.610172,122.3188 130.480742,123.44939 129.087417,123.44939 C127.694993,123.44939 126.565563,122.3188 126.565563,120.924044 C126.565563,119.529289 127.694993,118.398698 129.087417,118.398698 C130.480742,118.398698 131.610172,119.529289 131.610172,120.924044 Z" id="Stroke-2386" stroke="#FFFFFF" stroke-width="0.5"></path>
        <path d="M131.610172,168.801125 C131.610172,170.195881 130.480742,171.326471 129.087417,171.326471 C127.694993,171.326471 126.565563,170.195881 126.565563,168.801125 C126.565563,167.40637 127.694993,166.275779 129.087417,166.275779 C130.480742,166.275779 131.610172,167.40637 131.610172,168.801125" id="Fill-2387"></path>
        <path d="M131.610172,168.801125 C131.610172,170.195881 130.480742,171.326471 129.087417,171.326471 C127.694993,171.326471 126.565563,170.195881 126.565563,168.801125 C126.565563,167.40637 127.694993,166.275779 129.087417,166.275779 C130.480742,166.275779 131.610172,167.40637 131.610172,168.801125 Z" id="Stroke-2388" stroke="#FFFFFF" stroke-width="0.5"></path>
        <path d="M130.583687,120.849213 C130.583687,121.675968 129.913595,122.346749 129.087687,122.346749 C128.260879,122.346749 127.591687,121.675968 127.591687,120.849213 C127.591687,120.022457 128.260879,119.351676 129.087687,119.351676 C129.913595,119.351676 130.583687,120.022457 130.583687,120.849213 Z" id="Stroke-2389" stroke="#FFFFFF" stroke-width="0.5"></path>
        <path d="M130.583687,168.801125 C130.583687,169.627881 129.913595,170.298662 129.087687,170.298662 C128.260879,170.298662 127.591687,169.627881 127.591687,168.801125 C127.591687,167.97437 128.260879,167.303589 129.087687,167.303589 C129.913595,167.303589 130.583687,167.97437 130.583687,168.801125 Z" id="Stroke-2390" stroke="#FFFFFF" stroke-width="0.5"></path>
        <path d="M8.64725828,120.633283 C8.64725828,122.028038 7.51782781,123.158629 6.12450331,123.158629 C4.73207947,123.158629 3.60264901,122.028038 3.60264901,120.633283 C3.60264901,119.238527 4.73207947,118.107937 6.12450331,118.107937 C7.51782781,118.107937 8.64725828,119.238527 8.64725828,120.633283 Z" id="Stroke-2386" stroke="#FFFFFF" stroke-width="0.5"></path>
        <path d="M8.64725828,168.41741 C8.64725828,169.812165 7.51782781,170.942756 6.12450331,170.942756 C4.73207947,170.942756 3.60264901,169.812165 3.60264901,168.41741 C3.60264901,167.022654 4.73207947,165.892063 6.12450331,165.892063 C7.51782781,165.892063 8.64725828,167.022654 8.64725828,168.41741 Z" id="Stroke-2388" stroke="#FFFFFF" stroke-width="0.5"></path>
        <path d="M7.49531126,120.50706 C7.49531126,121.333816 6.82521854,122.004597 5.99931126,122.004597 C5.17250331,122.004597 4.50331126,121.333816 4.50331126,120.50706 C4.50331126,119.680305 5.17250331,119.009524 5.99931126,119.009524 C6.82521854,119.009524 7.49531126,119.680305 7.49531126,120.50706 Z" id="Stroke-2389" stroke="#FFFFFF" stroke-width="0.5"></path>
        <path d="M7.49531126,169.192775 C7.49531126,170.01953 6.82521854,170.690311 5.99931126,170.690311 C5.17250331,170.690311 4.50331126,170.01953 4.50331126,169.192775 C4.50331126,168.366019 5.17250331,167.695238 5.99931126,167.695238 C6.82521854,167.695238 7.49531126,168.366019 7.49531126,169.192775 Z" id="Stroke-2390" stroke="#FFFFFF" stroke-width="0.5"></path>
        <path d="M127.286273,215.784913 C127.286273,214.958157 127.956366,214.288278 128.782273,214.288278 C129.609081,214.288278 130.278273,214.958157 130.278273,215.784913" id="Stroke-2393" stroke="#676767" stroke-width="0.5"></path>
        <path d="M73.5922119,283.317679 C73.5922119,283.317679 97.7380662,282.919177 111.093987,281.865222 C124.449907,280.811266 128.732556,275.16733 128.732556,275.16733 C135.712689,267.01698 135.487523,241.357806 135.487523,241.357806 L135.487523,221.748282 L135.487523,100.033996 C135.487523,100.033996 135.262358,49.7705041 135.487523,37.3736787 C135.712689,24.9768533 134.195073,16.0610565 134.195073,16.0610565 C134.195073,16.0610565 133.89155,6.81257397 124.184212,3.61103746 C124.184212,3.61103746 115.508132,1.06225016 104.163391,0.856688254 C92.9411391,0.652929524 42.7184106,0.652929524 31.4961589,0.856688254 C20.1514172,1.06225016 11.4753377,3.61103746 11.4753377,3.61103746 C1.768,6.81257397 1.46447682,16.0610565 1.46447682,16.0610565 C1.46447682,16.0610565 -0.0531390728,24.9768533 0.17202649,37.3736787 C0.397192053,49.7705041 0.17202649,100.033996 0.17202649,100.033996 L0.17202649,221.748282 L0.17202649,241.357806 C0.17202649,241.357806 -0.0531390728,267.01698 6.92699338,275.16733 C6.92699338,275.16733 11.210543,280.811266 24.5655629,281.865222 C37.9214834,282.919177 62.0673377,283.317679 62.0673377,283.317679 L73.5922119,283.317679 Z" id="Stroke-42077" stroke="#FFFFFF" stroke-width="1.8"></path>
        <use id="Stroke-42079" stroke="#FFFFFF" mask="url(#mask-2)" stroke-width="3.6" xlink:href="#path-1"></use>
        <polygon id="Stroke-42080" stroke="#FFFFFF" stroke-width="1.8" points="1.30055629 72.9068571 134.386914 72.9068571 134.386914 71.8853587 1.30055629 71.8853587"></polygon>
        <path d="M72.5530278,119.658396 L61.3595974,119.658396 C59.4321801,119.658396 57.8542199,118.079717 57.8542199,116.15032 L57.8542199,78.5153613 C57.8542199,76.5850629 59.4321801,75.0063835 61.3595974,75.0063835 L72.5530278,75.0063835 C74.480445,75.0063835 76.0575046,76.5850629 76.0575046,78.5153613 L76.0575046,116.15032 C76.0575046,118.079717 74.480445,119.658396 72.5530278,119.658396 Z" id="Stroke-42082" stroke="#FFFFFF" stroke-width="0.9"></path>
        <path d="M61.3595974,166.893186 C59.4321801,166.893186 57.8542199,165.314507 57.8542199,163.38511 L57.8542199,125.750151 C57.8542199,123.819853 59.4321801,122.241173 61.3595974,122.241173 L72.5530278,122.241173 C74.480445,122.241173 76.0575046,123.819853 76.0575046,125.750151 L76.0575046,163.38511 C76.0575046,165.314507 74.480445,166.893186 72.5530278,166.893186 L61.3595974,166.893186 Z" id="Fill-42083"></path>
        <path d="M72.5530278,166.893186 L61.3595974,166.893186 C59.4321801,166.893186 57.8542199,165.314507 57.8542199,163.38511 L57.8542199,125.750151 C57.8542199,123.819853 59.4321801,122.241173 61.3595974,122.241173 L72.5530278,122.241173 C74.480445,122.241173 76.0575046,123.819853 76.0575046,125.750151 L76.0575046,163.38511 C76.0575046,165.314507 74.480445,166.893186 72.5530278,166.893186 Z" id="Stroke-42084" stroke="#FFFFFF" stroke-width="0.9"></path>
        <path d="M72.5530278,214.190366 L61.3595974,214.190366 C59.4321801,214.190366 57.8542199,212.611686 57.8542199,210.68229 L57.8542199,173.047331 C57.8542199,171.117934 59.4321801,169.539255 61.3595974,169.539255 L72.5530278,169.539255 C74.480445,169.539255 76.0575046,171.117934 76.0575046,173.047331 L76.0575046,210.68229 C76.0575046,212.611686 74.480445,214.190366 72.5530278,214.190366 Z" id="Stroke-42086" stroke="#FFFFFF" stroke-width="0.9"></path>
        <path d="M73.7210967,281.935365 L60.8578384,281.935365 C60.3714808,281.935365 59.9733881,281.536863 59.9733881,281.050908 C59.9733881,280.564051 60.3714808,280.165549 60.8578384,280.165549 L73.7210967,280.165549 C74.2074543,280.165549 74.6046464,280.564051 74.6046464,281.050908 C74.6046464,281.536863 74.2074543,281.935365 73.7210967,281.935365 Z" id="Stroke-42087" stroke="#FFFFFF" stroke-width="1.8"></path>
        <use id="Stroke-42088" stroke="#FFFFFF" mask="url(#mask-4)" stroke-width="3.6" xlink:href="#path-3"></use>
        <use id="Stroke-42090" stroke="#FFFFFF" mask="url(#mask-6)" stroke-width="3.6" xlink:href="#path-5"></use>
        <path d="M96.3466331,61.9752914 L60.0904742,61.9752914 C53.936249,61.9752914 48.9006464,56.9345168 48.9006464,50.7739708 L48.9006464,38.2112533 C48.9006464,32.0507073 53.936249,27.0099327 60.0904742,27.0099327 L96.3466331,27.0099327 C102.500858,27.0099327 107.536461,32.0507073 107.536461,38.2112533 L107.536461,50.7739708 C107.536461,56.9345168 102.500858,61.9752914 96.3466331,61.9752914 Z" id="Stroke-42092" stroke="#FFFFFF" stroke-width="1.8"></path>
        <path d="M96.3052927,33.8759708 L80.7661669,33.8759708 C79.1368689,33.8759708 78.2181934,33.3449359 77.6841007,32.7778375 C77.3643656,32.437939 76.9536636,32.437939 76.9536636,32.437939 L62.1692927,32.437939 C58.1424318,32.437939 54.8478093,35.7359454 54.8478093,39.7669422 L54.8478093,50.902447 C54.8478093,54.9334438 58.1424318,58.2314502 62.1692927,58.2314502 L95.4982993,58.2314502 C99.4567099,58.2314502 102.695491,54.9893422 102.695491,51.026866 L102.695491,40.9795771 C102.159597,33.4738629 96.3052927,33.8759708 96.3052927,33.8759708 Z" id="Stroke-42093" stroke="#FFFFFF" stroke-width="1.8"></path>
        <path d="M7.44010066,220.677557 L8.38129272,253.49263 C8.38129272,253.49263 9.12523974,272.366458 24.1266702,273.583601 C38.6174252,274.759271 58.7481272,275.178509 66.5136371,275.022535 L67.8565245,275.004503 C74.969955,275.206458 96.0175311,274.801646 111.018962,273.583601 C126.020392,272.366458 126.764339,253.49263 126.764339,253.49263 L127.689319,221.235639" id="Stroke-42097" stroke="#FFFFFF" stroke-width="1.8"></path>
    </g>
    <g id="Group" stroke="none" stroke-width="1" fill="none" fill-rule="evenodd" transform="translate(91.000000, 166.000000)">
        <use id="Rectangle-7" stroke="#FFFFFF" mask="url(#mask-8)" stroke-width="3.6" fill="#90CF42" xlink:href="#path-7"></use>
        <use id="Rectangle-7" stroke="#FFFFFF" mask="url(#mask-10)" stroke-width="1.8" fill="#90CF42" xlink:href="#path-9"></use>
        <use id="Rectangle-7" stroke="#FFFFFF" mask="url(#mask-12)" stroke-width="3.6" fill="#90CF42" xlink:href="#path-11"></use>
    </g>
    <polyline id="Path-2" stroke="#FFFFFF" stroke-width="1" stroke-dasharray="3,3" fill="none" points="114.568359 235.978516 66.3815419 235.978516 66.3815419 340.346085 158.711426 340.419434 157.836426 338.26709"></polyline>
    <g id="bolt" stroke="none" stroke-width="1" fill="none" fill-rule="evenodd" transform="translate(53.000000, 271.000000)">
        <g id="Group-3">
            <rect id="Rectangle" fill="#90CF42" x="0" y="0" width="26" height="26"></rect>
            <g id="Layer_1" transform="translate(7.000000, 5.000000)" fill="#FFFFFF">
                <path d="M0.722243328,10.1818042 L5.09354495,10.1818042 L3.87338033,15.0962963 C3.79278071,15.4211428 3.94276148,15.7594681 4.23684899,15.9158308 C4.34354478,15.9725577 4.45914794,16 4.57378814,16 C4.77504645,16 4.97307885,15.915346 5.11386337,15.7558802 L12.8175308,7.02865919 C13.0065114,6.81459985 13.0531185,6.50880772 12.9366006,6.2475729 C12.8200826,5.9862896 12.5622023,5.81819363 12.2777444,5.81819363 L7.90649095,5.81819363 L9.12655927,0.903701517 C9.20725519,0.578854955 9.05722627,0.240529686 8.76313876,0.0841669756 C8.46919571,-0.0721472503 8.10702704,-0.00615976223 7.88612438,0.244117544 L0.182456983,8.97133859 C-0.00647546025,9.18534945 -0.0531307959,9.49119006 0.0633871735,9.75242487 C0.179953291,10.0137567 0.437881705,10.1818042 0.722243328,10.1818042 Z" id="XMLID_466_"></path>
            </g>
        </g>
    </g>
</svg>